<?xml version="1.0" encoding="UTF-8"?>
<svg version="1.1" viewBox="0 0 990 994" width="1280" height="1280" xmlns="http://www.w3.org/2000/svg">
<path transform="translate(0)" d="m0 0h990v994h-990z" fill="#FCFCFC"/>
<path transform="translate(381,343)" d="m0 0h9l9 4 7 8 2 7-1 10-4 7-5 5h-2v2l5 1 10 6 7 8 4 8 2 7v31l-4 5-8 2-1 20h-59l1 10h11l3 3v11l-3 3h-46l-3-3v-11l3-3h12v-10h-36l-5-5-5-2-1-1-1-7-6-1-5 2-4-4-3-7 5-5h2l-1-6-5-3-1-3 5-9 4-1 6 2 4-1v-8l5-2 2-9 1-1 1-41 3-5 2-1h53l4 3 1 3 1 35 8-7 10-5-7-6-4-9v-9l3-8 5-5 6-4z" fill="#304814"/>
<path transform="translate(295,404)" d="m0 0h92l3 3v61l-4 3h-35l-4-33-12-1-3 28-1 6h-35l-3-3 3-1 3-9 5-1 6 2 5-7v-5l-5-3v-6l4-3h2l-2-6-4-6-9 2-3-2-1-7-5-2v-7z" fill="#FDFDFD"/>
<path transform="translate(607,364)" d="m0 0h26v2l-4 2-2 5-1 41 8-7 36-36 1-5h-2v-2h21v2l-8 4-18 18-8 7-12 12 1 5 21 32 16 24 4 5 6 4 4 1v2h-14l-8-3-8-9-29-44-3-4v-2l-7 6v47l3 6 3 3h-26v-2l4-2 2-5v-99l-3-5z" fill="#304814"/>
<path transform="translate(384,387)" d="m0 0 13 2 10 5 9 10 4 10 1 5v26l-5 5h-14l-6-4-2-4v-9l5-6 6-2h6l-1-2h-7l-7 3-2 1-1-18-2-5-3-2-29-1 2-4 8-6 8-3z" fill="#FDFDFD"/>
<path transform="translate(496,283)" d="m0 0 5 1v276l-4 1-2-2v-275z"/>
<path transform="translate(296,373)" d="m0 0h55v28h-55z" fill="#FDFDFD"/>
<path transform="translate(286,417)" d="m0 0h8l1 7 7 4 7-2 4 6-5 4-1 7 1 3 5 4-4 6-5-2-5 1-4 3-1 7h-7l-1-1-1-7-5-3-5 1-4 1-3-5 1-3 4-2v-10l-5-3 2-5 1-2 9 2 5-3z" fill="#FDFDFD"/>
<path transform="translate(381,346)" d="m0 0h8l10 5 4 6 1 3v10l-4 8-7 5-3 1h-9l-8-4-5-6-2-10 3-9 4-5z" fill="#FDFDFD"/>
<path transform="translate(718,621)" d="m0 0 8 2 6 7 2 5v8l-3 6-6 5-9 1-6-4-4-5-2-5 1-10 5-7z" fill="#FDFDFD"/>
<path transform="translate(298,359)" d="m0 0h51l2 2v9h-55v-9z" fill="#E4E7E0"/>
<path transform="translate(765,619)" d="m0 0h5l7 14 6 14 6-12 6-15 1-1h6v36l1 2h-9l1-2v-25l-12 27-3-3-10-23v24l1 2h-7l1-2z" fill="#090D03"/>
<path transform="translate(473,622)" d="m0 0h7l7 4 4 5 1 2v12l-6 7-5 2h-8z" fill="#FDFDFD"/>
<path transform="translate(338,440)" d="m0 0h6l1 1 4 36v7h-16l1-15 3-27z" fill="#FDFDFD"/>
<path transform="translate(348,619)" d="m0 0h6l12 28 2-2 11-26h7l-1 3v33l1 2h-8l1-3v-26l-12 28h-3l-11-26v24l1 3h-6l1-4v-30z" fill="#050702"/>
<path transform="translate(319,488)" d="m0 0h44l1 1v8l-1 1h-44z" fill="#FDFDFD"/>
<path transform="translate(714,619)" d="m0 0h11l6 3 6 7 1 3v12l-3 6-7 6-3 1h-13l-6-4-5-6-1-3v-11l4-8 7-5zm4 2-8 3-5 7-1 10 4 8 6 5 2 1 9-1 7-6 2-5v-8l-4-8-6-5z" fill="#060902"/>
<path transform="translate(467,619)" d="m0 0h12l8 2 7 6 3 7v8l-3 7-5 5-7 3h-15l1-3v-32zm6 3v32h8l6-3 5-6v-12l-4-6-5-4-3-1z" fill="#060902"/>
<path transform="translate(193,619)" d="m0 0h8l-1 3v12l12-12 1-3h6v2l-8 7-5 5 1 4 11 17 3 3-7-1-6-7-6-9v-2l-2 1v16l1 2h-8l1-4v-30z" fill="#060902"/>
<path transform="translate(426,619)" d="m0 0 3 4 11 30 2 4h-8l-1-7-3-8-10-1-2 9-1 7h-6l2-5 12-32z" fill="#070A02"/>
<path transform="translate(300,619)" d="m0 0h22l-1 5-13 25-3 5 15-1 3-3v6l-1 1h-24l8-16 10-19-13 1-3 3z" fill="#090E04"/>
<path transform="translate(523,619)" d="m0 0h21l1 1v5h-2l-1-2-13-1v14l9-1 4-2v7l-13-2v16l14-1 3-3v7h-23l1-3v-32z" fill="#060A02"/>
<path transform="translate(661,619)" d="m0 0h11l4 1v7l-5-4h-10l-6 4-3 5v11l4 7 8 4h6l4-1 2-4h1v7l-4 1h-13l-8-4-5-7-1-4v-8l4-8 6-5z" fill="#090D03"/>
<path transform="translate(246,619)" d="m0 0h8l-1 2v28l1 4 10 1 3-3 1-2v-27l-1-3h6l-1 4-1 28-2 4-4 2h-12l-4-4-1-2-1-28z" fill="#040601"/>
<path transform="translate(570,619)" d="m0 0h7l1 2 1 6 7 19 9-24v-3h6v2l-2 1-12 33-2 2-5-12-9-23z" fill="#080D03"/>
<path transform="translate(394,449)" d="m0 0 6 3 7 1 1 1v17h-16l1-5z" fill="#FDFDFD"/>
<path transform="translate(796,619)" d="m0 0h6v36l1 2h-9l1-2v-25l-2 2h-2l3-9z" fill="#0F1706"/>
<path transform="translate(250,696)" d="m0 0 7 1 4 6-1 7-5 4-6-1-4-5v-7z" fill="#FDFDFD"/>
<path transform="translate(756,696)" d="m0 0h6l5 5v8l-3 4-7 1-5-5-1-5 3-6z" fill="#FDFDFD"/>
<path transform="translate(349,696)" d="m0 0h6l5 5v8l-3 4-7 1-5-5-1-5 3-6z" fill="#FDFDFD"/>
<path transform="translate(529,696)" d="m0 0 7 1 3 4 1 5-3 6-4 2-5-1-4-5v-7z" fill="#FDFDFD"/>
<path transform="translate(379,619)" d="m0 0h7l-1 3v33l1 2h-8l1-3v-26h-3z" fill="#030501"/>
<path transform="translate(289,433)" d="m0 0 5 1 4 5-1 6-3 3-5 1-5-3-1-1v-7l3-4z" fill="#304814"/>
<path transform="translate(566,695)" d="m0 0h9l3 3-1 5-3 1 5 9 2 2-5-1-5-8-2-1 1 10-4-1z" fill="#0A0F04"/>
<path transform="translate(220,695)" d="m0 0h9l2 2-1 7h-3l7 11-4-1-6-8v9h-4z" fill="#0A0F04"/>
<path transform="translate(273,695)" d="m0 0 4 1 5 12v2h2l1-5 5-10 3 1v19l-4-1v-12l-6 13-2-1-5-12v13l-3-1z" fill="#080C03"/>
<path transform="translate(527,695)" d="m0 0h9l5 4 1 9-3 5-3 2h-9l-5-5-1-6 3-7zm2 1-5 5v7l4 5 5 1 5-3 2-7-3-6-3-2z" fill="#0B1004"/>
<path transform="translate(755,695)" d="m0 0h9l5 5 1 8-3 5-4 2h-8l-5-5-1-2v-6l4-6zm1 1-4 5-1 5 3 6 3 2 7-1 3-4v-8l-5-5z" fill="#0D1405"/>
<path transform="translate(348,695)" d="m0 0h9l5 5 1 7-3 6-4 2h-8l-5-5-1-2v-6l4-6zm1 1-4 5-1 5 3 6 3 2 7-1 3-4v-8l-5-5z" fill="#0E1506"/>
<path transform="translate(780,695)" d="m0 0 4 1 8 13v-14h3l-1 20-3-1-8-13v14l-4-1z" fill="#111A07"/>
<path transform="translate(373,695)" d="m0 0 4 1 8 13v-14h3l-1 20-3-1-8-13v14l-4-1z" fill="#121B07"/>
<path transform="translate(248,695)" d="m0 0h10l5 6v8l-6 6h-9l-5-5v-9zm2 1-5 5v7l4 5 6 1 5-4 1-7-4-6z" fill="#0A0F04"/>
<path transform="translate(446,695)" d="m0 0h8l3 3-1 5-3 2h-4l1 10h-4z" fill="#060A02"/>
<path transform="translate(590,695)" d="m0 0h11l-1 3-7-2v7l7-1-1 4-6-1v9l7-1 2-2v4h-13z" fill="#172209"/>
<path transform="translate(699,695)" d="m0 0 2 1 6 17 1 2h-4l-2-9-5 1-3 8-3-1 5-12z" fill="#3B4134"/>
<path transform="translate(618,695)" d="m0 0 2 1 6 17 1 2h-4l-2-9-5 1-3 8-3-1 5-12z" fill="#3B4134"/>
<path transform="translate(404,695)" d="m0 0h10l-1 4-2-2-7 1-3 5 1 6 3 3 6 1h2l1-2-1 4h-9l-5-4-1-2v-8l4-5z" fill="#0C1205"/>
<path transform="translate(324,695)" d="m0 0h10l-1 4-2-2-7 1-3 5 1 6 3 3 6 1h2l1-2-1 4h-9l-5-4-1-2v-8l4-5z" fill="#0C1205"/>
<path transform="translate(671,695)" d="m0 0h12l-2 6-7 13 7-1 2-1v3h-13l9-18h-6l-2 1z" fill="#080C03"/>
<path transform="translate(424,695)" d="m0 0h12l-1 3-1-1-7-1v7l7-1-1 4-6-1 1 8h6l2-1v3h-12z" fill="#0A1004"/>
<path transform="translate(267,619)" d="m0 0h6l-1 4-1 28h-3v-29z" fill="#070B03"/>
<path transform="translate(328,381)" d="m0 0 6 1 6 4-2 4-7 4-3-1 1-3 4-2 1-2-5-2z" fill="#304814"/>
<path transform="translate(315,381)" d="m0 0h4l-2 4-4 1 3 3 3 2-1 3-5-2-6-4 1-3z" fill="#304814"/>
<path transform="translate(501,695)" d="m0 0h13l-1 2-4-1 1 19h-5l1-19-5 1z" fill="#172309"/>
<path transform="translate(199,695)" d="m0 0h12l-1 3-1-1-7-1v7l7-1-1 4-6-1 1 10-4-1z" fill="#0B1104"/>
<path transform="translate(713,695)" d="m0 0h14l-1 3-5-2 1 19h-4v-18l-5 1z" fill="#050802"/>
<path transform="translate(465,695)" d="m0 0h14l-1 3-5-2 1 19h-4v-18l-5 1z" fill="#050802"/>
<path transform="translate(736,695)" d="m0 0h3v20l-4-1z" fill="#0E1606"/>
<path transform="translate(324,378)" d="m0 0h3l-1 8-3 10h-3l1-8z" fill="#304814"/>
<path transform="translate(750,703)" d="m0 0 2 3 2 5 3 2 7-1 4-6 1 4-4 4-2 1h-8l-5-5-1-6z" fill="#070B03"/>
<path transform="translate(636,695)" d="m0 0 4 1v17h6l2-1v3h-12z" fill="#030501"/>
<path transform="translate(288,437)" d="m0 0h5l1 1v5l-2 2-5-1-1-5z" fill="#FDFDFD"/>
<path transform="translate(566,695)" d="m0 0h8l-1 2-4-1 1 7 1 2h-2l1 10-4-1z" fill="#030501"/>
<path transform="translate(220,695)" d="m0 0h7l-4 1v8l2 1h-2l1 10h-4z" fill="#020401"/>
<path transform="translate(290,695)" d="m0 0 3 1v19l-4-1 1-15-2-1z" fill="#020300"/>
<path transform="translate(418,643)" d="m0 0 1 4-2 5v5h-6l2-5 3-8z" fill="#080C03"/>
<path transform="translate(245,699)" d="m0 0 1 2v7l5 5 4 2h-7l-5-5v-9z" fill="#030501"/>
<path transform="translate(664,619)" d="m0 0h8l4 1v7l-5-4-8-2z" fill="#070A02"/>
<path transform="translate(569,696)" d="m0 0 5 1 1 5-5 2-1-1z" fill="#FDFDFD"/>
<path transform="translate(377,627)" d="m0 0 1 3-5 12h-3l3-9 2-5z" fill="#080C03"/>
<path transform="translate(425,628)" d="m0 0 2 3 2 7h-7z" fill="#FDFDFD"/>
<path transform="translate(223,696)" d="m0 0 5 1 1 4-1 2-5 1z" fill="#FDFDFD"/>
<path transform="translate(343,703)" d="m0 0 2 3 2 5 3 2 5 1v1h-7l-5-5-1-6z" fill="#060A02"/>
<path transform="translate(675,707)" d="m0 0 1 3-2 4 7-1 2-1v3h-13l3-7z" fill="#0A1004"/>
<path transform="translate(701,703)" d="m0 0 3 1 4 11h-4l-2-9-4-1h3z" fill="#050802"/>
<path transform="translate(620,703)" d="m0 0 3 1 4 11h-4l-2-9-4-1h3z" fill="#050802"/>
<path transform="translate(523,703)" d="m0 0h1l2 7 4 3v2l-4-1-4-4-1-6z" fill="#131D08"/>
<path transform="translate(449,696)" d="m0 0 5 2-1 5-4 1z" fill="#FDFDFD"/>
<path transform="translate(616,651)" d="m0 0 4 1-1 5h-4v-5z" fill="#090D03"/>
</svg>
